<?xml version="1.0" encoding="utf-8"?>
<!-- Generator: Adobe Illustrator 21.0.0, SVG Export Plug-In . SVG Version: 6.00 Build 0)  -->
<svg version="1.1" id="Capa_1" xmlns="http://www.w3.org/2000/svg" xmlns:xlink="http://www.w3.org/1999/xlink" x="0px" y="0px"
	 viewBox="0 0 32 32" style="enable-background:new 0 0 32 32;" xml:space="preserve">
<style type="text/css">
	.st0{fill:#82970A;}
	.st1{fill:#A6BF1F;}
</style>
<g id="Capa_1_1_">
	<g id="hojas">
		<path class="st0" d="M19.6,11.9c1.2,2.3,3.4,2.8,5,1.1c2.6-2.8,1.5-5.9,4.4-8.6c-3-1.4-6-2.5-8.6,0.3C18.8,6.7,18.5,9.5,19.6,11.9
			C19.6,11.8,19.6,11.9,19.6,11.9z"/>
		<path class="st1" d="M16,17.4c0,0-0.1,0-0.1,0c-0.3-0.1-0.4-0.5-0.3-0.8l0,0c0.4-1.8,2.1-5,3.7-5.8c0.3-0.1,0.5,0.1,0.6,0.4
			c0.1,0.3,0,0.6-0.3,0.8l0,0c-1.3,0.6-2.8,3.4-3.1,4.8C16.4,17.2,16.2,17.4,16,17.4z"/>
		<path class="st0" d="M12.4,11.9c-1.2,2.3-3.4,2.8-5,1.1C4.8,10.3,5.9,7.1,3,4.4C6,3,9,1.9,11.6,4.7c1.6,2,1.9,4.8,0.8,7.1
			L12.4,11.9z"/>
		<path class="st1" d="M16,17.4c-0.2,0-0.4-0.2-0.4-0.5c-0.3-1.5-1.8-4.3-3.1-4.8c-0.3-0.2-0.4-0.5-0.3-0.8l0,0
			c0.1-0.3,0.3-0.6,0.6-0.4c1.6,0.7,3.4,4,3.7,5.8c0.1,0.3,0,0.6-0.3,0.8l0,0L16,17.4z"/>
		<path class="st1" d="M16,29c-0.2,0-0.4-0.2-0.5-0.4c0,0,0,0,0,0V16c0-0.2,0.2-0.4,0.5-0.4c0.2,0,0.4,0.2,0.5,0.4v12.5
			C16.5,28.8,16.3,29,16,29C16,29,16,29,16,29z"/>
	</g>
</g>
</svg>
